<svg width="25" height="7" viewBox="0 0 25 7" fill="none" xmlns="http://www.w3.org/2000/svg">
<g clip-path="url(#clip0_2429_48)">
<path d="M6.17578 4.93343V1.16016H7.92586C8.27553 1.16016 8.54146 1.25222 8.72335 1.43585C8.90525 1.61964 8.99635 1.87069 8.99635 2.18884C8.99635 2.35166 8.95527 2.49649 8.87326 2.62335C8.79109 2.75021 8.6876 2.84028 8.56279 2.89322C8.63774 2.92385 8.70814 2.96247 8.77432 3.00975C8.84017 3.0572 8.89741 3.1178 8.94554 3.19172C8.99368 3.26547 9.03194 3.3527 9.06064 3.45309C9.08918 3.55348 9.10345 3.67185 9.10345 3.80836C9.10345 4.15297 8.99447 4.42683 8.77682 4.62927C8.55934 4.83205 8.22566 4.93343 7.77611 4.93343H6.17578ZM6.89284 1.81376V2.63201H7.82942C8.12923 2.63201 8.27898 2.49583 8.27898 2.22297C8.27898 2.07896 8.24056 1.97474 8.16388 1.91032C8.08721 1.84589 7.96145 1.81376 7.78662 1.81376H6.89268H6.89284ZM7.83491 4.29132C8.00614 4.29132 8.13989 4.24004 8.23617 4.13782C8.3326 4.03561 8.38074 3.90692 8.38074 3.75142C8.38074 3.58478 8.33339 3.46358 8.23883 3.38766C8.14428 3.31208 8.0132 3.27396 7.84557 3.27396H6.89268V4.29132H7.83475H7.83491Z" fill="#FFE700"/>
<path d="M10.9132 4.93374C10.8918 4.86166 10.8773 4.77842 10.8704 4.68369C10.7883 4.78241 10.6795 4.86099 10.5438 4.91942C10.4082 4.97819 10.2514 5.00749 10.0729 5.00749C9.76968 5.00749 9.54765 4.93641 9.40653 4.79456C9.26572 4.65239 9.19531 4.46776 9.19531 4.24035C9.19531 4.03974 9.22558 3.87959 9.28626 3.76039C9.34694 3.64119 9.43067 3.54729 9.53793 3.4792C9.64502 3.41111 9.77219 3.36084 9.92037 3.32854C10.0685 3.29641 10.2299 3.26711 10.4049 3.24047C10.5796 3.21417 10.6973 3.17904 10.758 3.13542C10.8187 3.09197 10.849 3.02105 10.849 2.92233C10.849 2.83159 10.8088 2.76051 10.7287 2.70923C10.6486 2.65812 10.5405 2.63265 10.4049 2.63265C10.2442 2.63265 10.1292 2.67077 10.0598 2.74636C9.99015 2.82227 9.94624 2.92249 9.92837 3.04752H9.28093C9.28438 2.90351 9.3068 2.771 9.34757 2.64963C9.38865 2.5286 9.45482 2.42422 9.54577 2.33731C9.63671 2.25008 9.75525 2.18299 9.90171 2.13554C10.0478 2.08809 10.2263 2.06445 10.4369 2.06445C10.6475 2.06445 10.8196 2.08893 10.9642 2.1382C11.1086 2.18765 11.2247 2.2584 11.3121 2.3513C11.3993 2.44419 11.4628 2.55973 11.5022 2.69808C11.5412 2.83642 11.5612 2.99258 11.5612 3.16672V4.93408H10.9136L10.9132 4.93374ZM10.8649 3.56411C10.8294 3.60223 10.7775 3.63253 10.7099 3.65517C10.6421 3.67781 10.544 3.70262 10.4157 3.72909C10.2158 3.77054 10.0784 3.82382 10.0035 3.88825C9.92852 3.95267 9.8912 4.04524 9.8912 4.1666C9.8912 4.37503 10.0035 4.47892 10.2283 4.47892C10.3175 4.47892 10.4005 4.46294 10.4772 4.4308C10.5539 4.39867 10.6197 4.35489 10.6752 4.30012C10.7306 4.24535 10.7753 4.18059 10.8091 4.107C10.843 4.03308 10.8599 3.9545 10.8599 3.87093L10.8653 3.56411H10.8649Z" fill="#FFE700"/>
<path d="M13.5533 4.93424V3.2408C13.5533 3.02504 13.5194 2.87921 13.4515 2.80329C13.3838 2.72738 13.2677 2.68959 13.1036 2.68959C12.7432 2.68959 12.5632 2.90351 12.5632 3.3317V4.93408H11.8672V2.1382H12.5308V2.54741C12.6129 2.38826 12.7218 2.26806 12.8574 2.18665C12.993 2.10524 13.1679 2.06445 13.3819 2.06445C13.5067 2.06445 13.6228 2.0841 13.7298 2.12405C13.8369 2.16368 13.9287 2.22361 14.0055 2.30319C14.0822 2.38276 14.1426 2.48015 14.1874 2.59569C14.2318 2.7114 14.2544 2.84508 14.2544 2.99641V4.93408H13.5531L13.5533 4.93424Z" fill="#FFE700"/>
<path d="M16.052 3.09216H16.6996V3.88777C16.6996 4.03544 16.679 4.17645 16.6381 4.3108C16.597 4.44548 16.5329 4.56468 16.4454 4.6689C16.3579 4.77295 16.2474 4.85535 16.1136 4.91612C15.9797 4.97655 15.8201 5.00685 15.6347 5.00685C15.4494 5.00685 15.2778 4.97655 15.1422 4.91612C15.0066 4.85552 14.8951 4.77395 14.8076 4.67156C14.7201 4.56934 14.6569 4.45014 14.6176 4.31363C14.5785 4.17745 14.5586 4.03344 14.5586 3.88178V1.16016H15.2438V2.13756H16.6994V2.66048H15.2438V3.80836C15.2438 3.98633 15.2749 4.12367 15.3376 4.22023C15.3997 4.31679 15.5025 4.36507 15.6451 4.36507C15.7876 4.36507 15.8869 4.31762 15.9529 4.2229C16.0191 4.1285 16.0518 3.99382 16.0518 3.81951V3.09233L16.052 3.09216Z" fill="#FFE700"/>
<path d="M18.697 4.93454V4.54232C18.5185 4.85313 18.2455 5.00829 17.8782 5.00829C17.7461 5.00829 17.6257 4.98382 17.517 4.93454C17.4081 4.88526 17.3146 4.81501 17.236 4.72428C17.1573 4.63321 17.096 4.52517 17.0513 4.40014C17.0066 4.27528 16.9844 4.1351 16.9844 3.97978V2.13867H17.6801V3.86624C17.6801 4.21485 17.8283 4.38915 18.1242 4.38915C18.3026 4.38915 18.4375 4.32922 18.5284 4.21002C18.6194 4.09082 18.6648 3.93832 18.6648 3.75253V2.13867H19.3552V4.93454H18.6968H18.697Z" fill="#FFE700"/>
<path d="M19.6406 4.93343V1.16016H22.2525V1.81925H20.3633V2.62635H22.1027V3.2911H20.3633V4.26285H22.3383V4.93343H19.6408H19.6406Z" fill="#FFE700"/>
<path d="M24.3318 4.93343L24.3264 4.59232C24.1657 4.86901 23.9214 5.00719 23.5931 5.00719C23.4255 5.00719 23.2719 4.97306 23.1329 4.90497C22.9938 4.83688 22.8741 4.73832 22.7743 4.60963C22.6744 4.48094 22.5958 4.32362 22.5389 4.13782C22.4818 3.95237 22.4531 3.7421 22.4531 3.5072C22.4531 3.2951 22.4771 3.10082 22.5253 2.92468C22.5734 2.74855 22.6438 2.59605 22.7368 2.46719C22.8295 2.33834 22.9428 2.23895 23.0766 2.16886C23.2105 2.09894 23.3627 2.06381 23.5343 2.06381C23.8589 2.06381 24.1193 2.20965 24.3155 2.50132V1.16016H25.0007V4.93343H24.3315H24.3318ZM23.7538 4.40503C23.9214 4.40503 24.0616 4.33111 24.1739 4.18344C24.2865 4.03577 24.3426 3.84249 24.3426 3.60392C24.3426 2.99777 24.1482 2.69461 23.7591 2.69461C23.3701 2.69461 23.1598 2.98245 23.1598 3.55831C23.1598 3.80836 23.215 4.01197 23.3257 4.16929C23.4363 4.32628 23.5788 4.40503 23.7538 4.40503Z" fill="#FFE700"/>
<path d="M5.51851 3.89864C4.54822 3.82572 3.76718 4.20746 3.19407 5.03503C3.17886 4.94796 3.20285 4.86339 3.23359 4.77333C3.31418 4.53609 3.4655 4.33065 3.72469 4.1064C4.1882 3.70502 4.70267 3.47911 5.25414 3.43566C5.28629 3.43299 5.31608 3.42766 5.35418 3.42051C5.37331 3.41701 5.39464 3.41301 5.41926 3.40885L5.49735 3.39587L4.86543 0L4.78891 0.0186458C4.00662 0.211264 3.35511 0.657764 2.79956 1.38179C2.244 0.65793 1.59233 0.211264 0.8102 0.0186458L0.73368 0L0.101765 3.39587L0.179853 3.40885C0.204471 3.41301 0.225796 3.41684 0.244926 3.42051C0.282872 3.42766 0.312665 3.43316 0.344966 3.43566C0.896598 3.47927 1.41107 3.70502 1.87442 4.1064C2.13361 4.33065 2.28493 4.53609 2.36553 4.77333C2.39626 4.86339 2.42025 4.94796 2.40504 5.03503C1.83193 4.20746 1.05089 3.82572 0.0805966 3.89864L0 3.9048L0.0106626 3.99004C0.111016 4.7705 0.374445 5.3362 0.793265 5.67165C1.1652 5.96949 1.65395 6.08119 2.24651 6.00295C2.26407 6.06038 2.28211 6.11782 2.29998 6.17559C2.35863 6.36205 2.41915 6.55467 2.46227 6.74728C2.50539 6.94306 2.59634 7 2.78262 7H2.81665C3.00293 7 3.09387 6.94323 3.13699 6.74728C3.18012 6.55467 3.24064 6.36205 3.29929 6.17559C3.31716 6.11782 3.33519 6.06038 3.35276 6.00295C3.94531 6.08103 4.43407 5.96949 4.806 5.67165C5.22482 5.33603 5.48825 4.7705 5.58861 3.99004L5.59927 3.9048L5.51867 3.89864H5.51851ZM1.36387 5.31439C1.09276 5.16306 0.874332 4.8892 0.77586 4.5842C1.12569 4.60651 1.69613 5.02138 1.9119 5.41511C1.74349 5.45406 1.55235 5.4196 1.36403 5.31439H1.36387ZM2.97486 3.98887C2.90775 4.07244 2.84942 4.15818 2.79956 4.24642C2.74969 4.15835 2.69136 4.07244 2.62425 3.98887C2.19759 3.4588 1.63106 3.08971 0.940659 2.8916C0.89895 2.87961 0.857397 2.86896 0.813649 2.85797L1.19374 0.821747C1.86689 1.15737 2.37101 1.70393 2.7315 2.49021L2.79956 2.63838L2.86761 2.49021C3.2281 1.70393 3.73222 1.15737 4.40537 0.821747L4.78546 2.85797C4.74171 2.86896 4.7 2.87961 4.65845 2.8916C3.96805 3.08971 3.40152 3.4588 2.97486 3.98887ZM4.23508 5.31439C4.04661 5.4196 3.85546 5.45406 3.68722 5.41511C3.90298 5.02155 4.47342 4.60651 4.82325 4.5842C4.72478 4.88903 4.50635 5.16306 4.23524 5.31439H4.23508Z" fill="#FFE700"/>
</g>
<defs>
<clipPath id="clip0_2429_48">
<rect width="25" height="7" fill="white"/>
</clipPath>
</defs>
</svg>
