<svg width="25" height="7" viewBox="0 0 25 7" fill="none" xmlns="http://www.w3.org/2000/svg">
<g clip-path="url(#clip0_2430_82)">
<path d="M0.00390625 0.00195312H6.32028V6.23788H0.00390625V0.00195312Z" fill="#8E8E8E"/>
<path d="M0.972656 0.769531H7.28903V7.00546H0.972656V0.769531Z" fill="#0C5CA4"/>
<path d="M4.10938 6.79688V3.89648H4.87463L6.28367 5.66961V3.89648H7.04371V6.79688H6.28367L4.87463 5.02375V6.79688H4.10938Z" fill="white"/>
<path d="M7.54734 5.79338C7.545 5.65222 7.57464 5.51233 7.6341 5.38394C7.6925 5.25781 7.77703 5.14517 7.88225 5.0533C7.99378 4.95677 8.12269 4.8818 8.26227 4.8323C8.41612 4.77633 8.57899 4.74847 8.74294 4.75006C8.90541 4.74904 9.06685 4.7757 9.22014 4.82887C9.36003 4.87803 9.48947 4.95239 9.6019 5.04816C9.71056 5.14245 9.79652 5.25951 9.85351 5.39079C9.91333 5.52585 9.94421 5.67167 9.94421 5.81908C9.94421 5.96649 9.91333 6.11231 9.85351 6.24737C9.79498 6.37778 9.70924 6.49453 9.6019 6.59001C9.49014 6.68718 9.35972 6.76117 9.2184 6.80758C9.06258 6.86005 8.89889 6.88612 8.73426 6.88467C8.57246 6.88625 8.41159 6.86017 8.2588 6.80758C8.11986 6.75971 7.99189 6.68519 7.88225 6.58829C7.77667 6.49242 7.69271 6.37568 7.63584 6.24566C7.57291 6.10319 7.54269 5.94874 7.54734 5.79338ZM8.29177 5.79338C8.28993 5.85862 8.30236 5.92348 8.32821 5.98355C8.35174 6.03681 8.38464 6.08553 8.42539 6.12745C8.466 6.16911 8.51508 6.20181 8.56941 6.22339C8.6242 6.24682 8.68323 6.25905 8.74294 6.25937C8.80262 6.25882 8.8616 6.24659 8.91647 6.22339C8.97058 6.20141 9.01959 6.16877 9.06049 6.12745C9.10124 6.08553 9.13414 6.03681 9.15767 5.98355C9.18126 5.92941 9.19365 5.87116 9.19411 5.81223C9.19394 5.75327 9.18154 5.69496 9.15767 5.64091C9.1346 5.5869 9.10166 5.53754 9.06049 5.49529C9.01912 5.45454 8.97024 5.42197 8.91647 5.39936C8.86126 5.37747 8.80243 5.36585 8.74294 5.36509C8.68343 5.36565 8.62456 5.37727 8.56941 5.39936C8.51541 5.42154 8.46644 5.45416 8.42539 5.49529C8.38516 5.53698 8.35231 5.58505 8.32821 5.63749C8.30539 5.68886 8.293 5.74415 8.29177 5.80024V5.79338Z" fill="#0C5CA4"/>
<path d="M11.1536 5.40594V6.79875H10.4474V5.40594H10.2148V4.82518H10.4474V4.23242H11.1536V4.82518H11.5545V5.40594H11.1536Z" fill="#0C5CA4"/>
<path d="M11.8242 4.06615C11.8238 4.01374 11.8345 3.96182 11.8555 3.91368C11.876 3.86729 11.9048 3.82493 11.9405 3.78862C11.9775 3.75278 12.021 3.72428 12.0689 3.70468C12.1171 3.68395 12.1691 3.67344 12.2216 3.67384C12.2747 3.67345 12.3273 3.68395 12.376 3.70468C12.4716 3.74428 12.5476 3.81933 12.5877 3.91368C12.6087 3.96182 12.6194 4.01374 12.619 4.06615C12.6194 4.11801 12.6087 4.16938 12.5877 4.21691C12.5679 4.26363 12.539 4.3061 12.5027 4.34197C12.4665 4.37832 12.4235 4.4074 12.376 4.42763C12.3273 4.44835 12.2747 4.45885 12.2216 4.45847C12.1691 4.45887 12.1171 4.44836 12.0689 4.42763C12.021 4.40741 11.9774 4.37834 11.9405 4.34197C11.9048 4.30567 11.876 4.2633 11.8555 4.21691C11.8345 4.16938 11.8238 4.11801 11.8242 4.06615ZM12.5756 4.82337V6.79694H11.8711V4.82337H12.5756Z" fill="#0C5CA4"/>
<path d="M14.5775 5.46345C14.4699 5.38608 14.3409 5.34304 14.2079 5.34011C14.0791 5.33709 13.9543 5.38451 13.8608 5.47202C13.8168 5.51502 13.782 5.56628 13.7584 5.62278C13.7274 5.68581 13.7108 5.75484 13.7099 5.82493C13.7088 5.88828 13.7206 5.95119 13.7444 6.01001C13.7683 6.06883 13.8037 6.12239 13.8487 6.16757C13.8923 6.21091 13.945 6.24425 14.0031 6.26522C14.0637 6.28947 14.1286 6.30169 14.194 6.30119C14.3354 6.29974 14.4715 6.24804 14.5775 6.15557V6.74833C14.422 6.8183 14.2538 6.8562 14.0829 6.85969C13.9413 6.86075 13.8006 6.83576 13.6682 6.78602C13.5395 6.73919 13.4214 6.66772 13.3208 6.57569C13.2201 6.48367 13.1389 6.37292 13.0817 6.2498C13.0175 6.11713 12.9843 5.97194 12.9845 5.82493C12.982 5.67768 13.0116 5.53162 13.0713 5.39664C13.1238 5.26773 13.203 5.15104 13.3038 5.05401C13.4044 4.95992 13.5222 4.88551 13.6509 4.83472C13.7911 4.78214 13.9399 4.75543 14.0899 4.75592C14.2548 4.75421 14.4178 4.7912 14.5653 4.86385L14.5775 5.46345Z" fill="#0C5CA4"/>
<path d="M15.6044 5.93025C15.6044 6.23005 15.7467 6.3791 16.0331 6.3791C16.1025 6.38218 16.1714 6.3666 16.2325 6.33401C16.2936 6.30142 16.3447 6.25306 16.3801 6.19407H17.0621C16.925 6.64635 16.5797 6.87934 16.0209 6.87934C15.8632 6.88081 15.7065 6.85531 15.5576 6.80396C15.4238 6.7576 15.3009 6.68472 15.1967 6.58982C15.0963 6.49714 15.017 6.38443 14.9641 6.25917C14.9111 6.12087 14.8863 5.97356 14.8912 5.82574C14.889 5.67377 14.9155 5.5227 14.9693 5.38032C15.0173 5.25153 15.0931 5.1346 15.1914 5.03769C15.2906 4.94304 15.4089 4.87007 15.5385 4.82354C15.6866 4.77163 15.8429 4.74611 16.0001 4.74816C16.1555 4.74625 16.3101 4.77177 16.4565 4.82354C16.5875 4.86896 16.7062 4.94338 16.8035 5.04111C16.8989 5.13909 16.9722 5.25585 17.0187 5.38375C17.0698 5.53326 17.0951 5.69022 17.0933 5.84801V5.92168L15.6044 5.93025ZM16.4304 5.52594C16.4111 5.43373 16.3602 5.35088 16.2864 5.29124C16.2098 5.23452 16.1166 5.20386 16.0209 5.20386C15.9252 5.20386 15.832 5.23452 15.7554 5.29124C15.6814 5.34992 15.632 5.43349 15.6166 5.52594H16.4304Z" fill="#0C5CA4"/>
<path d="M19.2418 4.5355H18.3221V5.02032H19.1602V5.65248H18.3221V6.79174H17.5586V3.89648H19.2418V4.5355Z" fill="#0C5CA4"/>
<path d="M21.1442 4.82372H21.8626V6.79729H21.1529V6.57801C21.0792 6.66913 20.9846 6.74154 20.8768 6.78922C20.7691 6.8369 20.6513 6.85847 20.5334 6.85211C20.3951 6.85382 20.258 6.82698 20.1308 6.77331C20.0108 6.72097 19.9023 6.64589 19.8115 6.55231C19.7191 6.45278 19.6472 6.33639 19.5998 6.20968C19.5481 6.07628 19.5222 5.93449 19.5235 5.79166C19.5224 5.65402 19.5477 5.51742 19.5981 5.38907C19.6444 5.2661 19.7146 5.15322 19.8046 5.05671C19.8967 4.96524 20.0064 4.893 20.1274 4.84428C20.2545 4.78834 20.3925 4.76029 20.5317 4.76205C20.6477 4.75875 20.7631 4.78015 20.87 4.82479C20.9768 4.86942 21.0728 4.93625 21.1512 5.02074L21.1442 4.82372ZM20.2558 5.80537C20.2564 5.86411 20.2682 5.92222 20.2905 5.97668C20.3134 6.02987 20.3457 6.0786 20.3859 6.12059C20.4268 6.1619 20.4758 6.19455 20.5299 6.21653C20.5875 6.24073 20.6496 6.25298 20.7121 6.2525C20.7719 6.25234 20.8309 6.24009 20.8857 6.21653C20.94 6.19495 20.9891 6.16225 21.0297 6.12059C21.0704 6.0793 21.1033 6.03114 21.1269 5.9784C21.1517 5.9246 21.1647 5.86621 21.165 5.80708C21.1643 5.748 21.1513 5.6897 21.1269 5.63577C21.1033 5.5825 21.0704 5.53378 21.0297 5.49186C20.9891 5.4502 20.94 5.4175 20.8857 5.39592C20.8308 5.3729 20.7717 5.36124 20.7121 5.36166C20.6497 5.3606 20.5876 5.37226 20.5299 5.39592C20.4758 5.4179 20.4268 5.45055 20.3859 5.49186C20.3461 5.53291 20.3139 5.58044 20.2905 5.63234C20.2669 5.68703 20.2551 5.74594 20.2558 5.80537Z" fill="#0C5CA4"/>
<path d="M23.0894 5.72877L22.279 4.82422H23.1969L23.544 5.23195L23.8911 4.82422H24.8125L23.983 5.72877L24.986 6.79779H24.0507L23.5405 6.2136L23.0199 6.79779H22.0898L23.0894 5.72877Z" fill="#0C5CA4"/>
</g>
<defs>
<clipPath id="clip0_2430_82">
<rect width="25" height="7" fill="white"/>
</clipPath>
</defs>
</svg>
