<svg width="25" height="7" viewBox="0 0 25 7" fill="none" xmlns="http://www.w3.org/2000/svg">
<g clip-path="url(#clip0_2429_58)">
<path d="M21.9958 4.49671C21.9958 4.95963 21.6376 5.17935 21.6376 5.17935C21.0731 5.51968 20.3551 5.2776 20.1603 5.20058C20.1297 5.18841 20.1095 5.15245 20.1095 5.11168V4.63318C20.1095 4.56721 20.1612 4.5236 20.2098 4.54795C20.5731 4.73058 21.0731 4.68612 21.1878 4.61562C21.3375 4.52559 21.2525 4.39223 21.2525 4.39223C21.1864 4.28549 20.7934 4.21866 20.7934 4.21866C20.4278 4.1425 20.2803 3.95167 20.2803 3.95167C20.1038 3.76989 20.1038 3.44627 20.1038 3.44627C20.0696 2.79873 20.4431 2.60875 20.4431 2.60875C20.9983 2.31287 21.621 2.51701 21.7997 2.58751C21.8304 2.59969 21.8505 2.63564 21.8505 2.67642V3.18748C21.847 3.23674 21.8142 3.27469 21.7742 3.27469C21.7691 3.27469 21.764 3.27384 21.7589 3.2727C21.7538 3.27072 21.7487 3.26902 21.7443 3.26704C21.4014 3.13991 21.107 3.12887 21.107 3.12887C20.645 3.11669 20.7357 3.3718 20.828 3.42192C20.9078 3.46467 21.3963 3.59067 21.3963 3.59067C21.7414 3.67957 21.9958 3.95506 21.9958 4.49699V4.49671Z" fill="#2703A5"/>
<path d="M24.0857 4.49671C24.0857 4.95963 23.7274 5.17935 23.7274 5.17935C23.1629 5.51968 22.4449 5.2776 22.2502 5.20058C22.2196 5.18841 22.1994 5.15245 22.1994 5.11168V4.63318C22.1994 4.56721 22.2511 4.5236 22.2996 4.54795C22.663 4.73058 23.1629 4.68612 23.2776 4.61562C23.4273 4.52559 23.3424 4.39223 23.3424 4.39223C23.2763 4.28549 22.8832 4.21866 22.8832 4.21866C22.5177 4.1425 22.3702 3.95167 22.3702 3.95167C22.1936 3.76989 22.1936 3.44627 22.1936 3.44627C22.1595 2.79873 22.533 2.60875 22.533 2.60875C23.0882 2.31287 23.7108 2.51701 23.8896 2.58751C23.9202 2.59969 23.9404 2.63564 23.9404 2.67642V3.18748C23.9368 3.23674 23.904 3.27469 23.8641 3.27469C23.859 3.27469 23.8539 3.27384 23.8488 3.2727C23.8437 3.27072 23.8386 3.26902 23.8341 3.26704C23.4912 3.13991 23.1969 3.12887 23.1969 3.12887C22.7348 3.11669 22.8256 3.3718 22.9178 3.42192C22.9977 3.46467 23.4861 3.59067 23.4861 3.59067C23.8313 3.67957 24.0857 3.95506 24.0857 4.49699V4.49671Z" fill="#2703A5"/>
<path d="M19.3487 2.53523C18.6156 2.25718 17.9633 2.74418 17.8823 3.62247C17.8022 4.50076 18.032 5.21314 18.7689 5.32752C19.1855 5.39208 19.5435 5.29893 19.7748 5.20634C19.8048 5.19445 19.8249 5.15821 19.8249 5.11829V4.61742C19.8249 4.55541 19.7786 4.51067 19.732 4.52851C19.4609 4.63157 18.6837 4.8629 18.5879 4.17289H19.9143C19.9143 4.17289 20.0829 2.81128 19.3485 2.53551M19.2677 3.62247H18.5881C18.5881 3.62247 18.6125 3.19125 18.9545 3.19125C19.2966 3.19125 19.268 3.62247 19.268 3.62247" fill="#2703A5"/>
<path d="M17.6801 2.63304V5.17532C17.6801 5.22629 17.6477 5.26734 17.608 5.26734H17.1258C17.0859 5.26734 17.0537 5.22601 17.0537 5.17532V5.05442C17.0537 5.05442 16.2255 5.70026 15.7801 5.0598C15.625 4.83669 15.6133 4.20303 15.6133 4.20303V2.63304C15.6133 2.58207 15.6457 2.54102 15.6854 2.54102H16.2572C16.2971 2.54102 16.3293 2.58235 16.3293 2.63304V4.09374C16.3293 4.09374 16.3051 4.53515 16.5979 4.53515C16.5979 4.53515 16.7958 4.56686 16.9681 4.3378V2.63304C16.9681 2.58207 17.0005 2.54102 17.0402 2.54102H17.6078C17.6477 2.54102 17.6799 2.58235 17.6799 2.63304H17.6801Z" fill="#2703A5"/>
<path d="M24.9168 2.54102H24.3499C24.3098 2.54102 24.2773 2.58247 24.2773 2.6336V5.17504C24.2773 5.22617 24.3098 5.26763 24.3499 5.26763H24.9168C24.9569 5.26763 24.9894 5.22617 24.9894 5.17504V2.6336C24.9894 2.58247 24.9569 2.54102 24.9168 2.54102Z" fill="#2703A5"/>
<path d="M12.7562 1.68211L12.3223 3.94325L11.8601 1.68098C11.8516 1.63992 11.8228 1.61133 11.7895 1.61133H11.2751C11.2423 1.61133 11.2135 1.63936 11.2048 1.68013L10.727 3.92767L10.2892 1.68211C10.2812 1.64049 10.2519 1.61161 10.2184 1.61161H9.5652C9.51595 1.61161 9.48091 1.67277 9.49555 1.73251L10.3451 5.18169C10.3546 5.22048 10.3828 5.24681 10.4147 5.24681H10.9531C10.9857 5.24681 11.0143 5.21935 11.0232 5.17914L11.5123 2.98737L12.0016 5.17914C12.0105 5.21906 12.0391 5.24681 12.0717 5.24681H12.6138C12.6457 5.24681 12.6739 5.22048 12.6834 5.1814L13.5288 1.73223C13.5434 1.6722 13.5083 1.61133 13.4591 1.61133H12.8267C12.7932 1.61133 12.7639 1.64049 12.756 1.6824L12.7562 1.68211Z" fill="#2703A5"/>
<path d="M15.4417 3.97997C15.4417 4.73114 14.9644 5.33875 14.3773 5.33875C14.2136 5.33875 14.0598 5.29203 13.9219 5.20794C13.933 5.20171 13.9452 5.19378 13.9574 5.18444C14.1905 5.01314 14.4591 4.7402 14.7155 4.41317C14.9231 4.14816 15.1866 3.75714 15.3406 3.40039C15.4054 3.5765 15.442 3.77272 15.442 3.97997H15.4417Z" fill="#2703A5"/>
<path d="M15.3938 2.68009C15.2851 2.54305 15.0973 2.56485 14.8311 2.7503C14.82 2.75823 14.8078 2.76588 14.7956 2.77522C14.5625 2.94652 14.2939 3.22088 14.0374 3.54649C13.781 3.87379 13.5663 4.21809 13.4332 4.51566C13.4259 4.53124 13.4197 4.54539 13.4137 4.55927C13.2684 4.89903 13.2502 5.14055 13.3587 5.27929C13.4051 5.33846 13.4661 5.36819 13.5419 5.36819C13.6433 5.36819 13.7702 5.31524 13.9217 5.20765C13.9327 5.20142 13.9449 5.19349 13.9571 5.18415C14.1903 5.01285 14.4589 4.73991 14.7153 4.41289C14.9229 4.14787 15.1864 3.75686 15.3404 3.4001C15.4648 3.10564 15.5149 2.8344 15.394 2.68009H15.3938ZM14.543 4.19176C14.1841 4.64987 13.8691 4.91319 13.6834 5.01144C13.6127 5.05051 13.5614 5.06438 13.5333 5.05674C13.5271 5.02248 13.5381 4.95538 13.5688 4.86506C13.6468 4.62977 13.852 4.2246 14.2096 3.7679C14.5685 3.30978 14.8834 3.04647 15.0691 2.94822C15.1398 2.90914 15.1911 2.89527 15.2193 2.90291C15.2204 2.90914 15.2204 2.91537 15.2204 2.92472C15.2204 2.96209 15.2082 3.01985 15.1838 3.0946C15.1057 3.32989 14.9005 3.73506 14.543 4.19176Z" fill="#2703A5"/>
<path d="M13.3291 4.47099C13.3178 4.47042 13.3058 4.46561 13.3009 4.45287C13.231 4.26571 13.1953 4.06468 13.1953 3.85488C13.1953 3.08418 13.6871 2.45703 14.2917 2.45703C14.4561 2.45703 14.6138 2.50233 14.7602 2.5918C14.7708 2.59832 14.7775 2.61162 14.7775 2.62663C14.7775 2.64164 14.7711 2.65523 14.7606 2.66174C14.5166 2.83898 14.2407 3.11957 13.9774 3.45537C13.7168 3.78778 13.497 4.14028 13.3583 4.44777C13.3528 4.45994 13.3408 4.47127 13.3295 4.47127H13.3288L13.3291 4.47099Z" fill="#2703A5"/>
<path d="M10.8998 6.97677H10.7197L10.627 6.76017C10.6217 6.74743 10.6166 6.73582 10.6117 6.72506C10.6066 6.7143 10.6013 6.70496 10.5955 6.69703C10.5897 6.6891 10.5829 6.68316 10.5753 6.67863C10.5678 6.6741 10.5582 6.67183 10.5465 6.67183H10.5028V6.97649H10.3438V6.19531H10.5028V6.48893H10.5421C10.5636 6.48893 10.5804 6.48156 10.5922 6.46656C10.6042 6.45183 10.6159 6.43145 10.6277 6.40625L10.7266 6.19531H10.8954L10.7548 6.49997C10.7477 6.51497 10.7399 6.52885 10.7315 6.54187C10.723 6.5549 10.7131 6.56481 10.7013 6.5716C10.7166 6.58123 10.7295 6.59567 10.7406 6.6152C10.7517 6.63446 10.7616 6.65456 10.7703 6.67551L10.8996 6.97677H10.8998Z" fill="#2703A5"/>
<path d="M12.0115 6.81875V6.97844H11.5781V6.19727H12.0064V6.35667H11.7372V6.50305H11.9854V6.66274H11.7372V6.81875H12.0115Z" fill="#2703A5"/>
<path d="M13.0478 6.70606V6.97844H12.8888V6.71059L12.6641 6.19727H12.8564L12.9218 6.37819C12.93 6.40141 12.9387 6.42576 12.9478 6.45181C12.9569 6.47785 12.9644 6.50164 12.9708 6.52316C12.9773 6.50164 12.985 6.47757 12.9946 6.45124C13.0039 6.42491 13.0125 6.39999 13.0207 6.37706L13.0855 6.19727H13.2734L13.0478 6.70606Z" fill="#2703A5"/>
<path d="M15.1873 6.37253H14.9952V6.97844H14.836V6.37253H14.6445V6.19727H15.1873V6.37253Z" fill="#2703A5"/>
<path d="M16.1348 6.17383C16.1831 6.17383 16.2264 6.18317 16.265 6.20186C16.3036 6.22055 16.3362 6.24744 16.363 6.28284C16.3896 6.31823 16.4102 6.36126 16.4242 6.41223C16.4382 6.46319 16.4453 6.52067 16.4453 6.58466C16.4453 6.64922 16.4382 6.70726 16.4242 6.75879C16.4102 6.81004 16.3898 6.85364 16.363 6.88932C16.3362 6.92499 16.3036 6.95246 16.265 6.97143C16.2266 6.9904 16.1831 7.00002 16.1348 7.00002C16.0862 7.00002 16.0429 6.99068 16.0046 6.97199C15.966 6.9533 15.9336 6.92641 15.907 6.89101C15.8803 6.85562 15.8602 6.81287 15.8457 6.76219C15.8313 6.71151 15.8242 6.65403 15.8242 6.58919C15.8242 6.52464 15.8313 6.46659 15.8457 6.41506C15.8599 6.36381 15.8803 6.32021 15.907 6.28453C15.9333 6.24886 15.966 6.2214 16.0046 6.20243C16.0429 6.18346 16.0864 6.17383 16.1348 6.17383ZM16.1348 6.34682C16.0882 6.34682 16.0516 6.36778 16.025 6.4094C15.9983 6.45102 15.9853 6.51019 15.9853 6.58693C15.9853 6.66422 15.9986 6.72368 16.025 6.76502C16.0516 6.80636 16.0882 6.82703 16.1348 6.82703C16.1807 6.82703 16.2173 6.80636 16.2441 6.76502C16.2709 6.72368 16.2843 6.6645 16.2843 6.58693C16.2843 6.51019 16.2709 6.4513 16.2441 6.4094C16.2173 6.36778 16.1809 6.34682 16.1348 6.34682Z" fill="#2703A5"/>
<path d="M18.1909 6.19727C18.2933 6.19727 18.371 6.23096 18.4233 6.29835C18.4757 6.36573 18.5021 6.46228 18.5021 6.58799C18.5021 6.71371 18.4757 6.81026 18.4233 6.87764C18.371 6.94503 18.2933 6.97872 18.1909 6.97872H17.9453V6.19755H18.1909V6.19727ZM18.1829 6.80771C18.2882 6.80771 18.341 6.73438 18.341 6.58799C18.341 6.44133 18.2882 6.36828 18.1829 6.36828H18.1041V6.80799H18.1829V6.80771Z" fill="#2703A5"/>
<path d="M19.37 6.19727H19.2109V6.97844H19.37V6.19727Z" fill="#2703A5"/>
<path d="M20.6199 6.53568V6.95189C20.5884 6.96605 20.5533 6.97765 20.5145 6.98643C20.4759 6.99549 20.4347 6.99974 20.391 6.99974C20.3402 6.99974 20.2951 6.9904 20.2559 6.97171C20.2164 6.95302 20.1834 6.92641 20.1565 6.8913C20.1299 6.85619 20.1093 6.81343 20.0953 6.76304C20.0813 6.71235 20.0742 6.65516 20.0742 6.59117C20.0742 6.5286 20.0811 6.47169 20.0948 6.42044C20.1086 6.36919 20.1295 6.32531 20.1576 6.28878C20.186 6.25226 20.2215 6.22394 20.2648 6.20412C20.3078 6.18402 20.3586 6.17383 20.4169 6.17383C20.4502 6.17383 20.4801 6.17694 20.507 6.18289C20.5338 6.18883 20.562 6.19818 20.5917 6.21092V6.38731C20.5638 6.37316 20.5363 6.36268 20.5096 6.3556C20.4828 6.34852 20.4529 6.34484 20.4196 6.34484C20.3559 6.34484 20.3093 6.36664 20.2796 6.40996C20.2499 6.45328 20.235 6.51218 20.235 6.58636C20.235 6.66054 20.2488 6.71972 20.2761 6.76332C20.3034 6.80721 20.3468 6.82901 20.4063 6.82901C20.4273 6.82901 20.45 6.82618 20.4744 6.81995V6.69282H20.3712V6.53539H20.6197L20.6199 6.53568Z" fill="#2703A5"/>
<path d="M21.495 6.19727H21.3359V6.97844H21.495V6.19727Z" fill="#2703A5"/>
<path d="M22.7227 6.37253H22.5304V6.97844H22.3713V6.37253H22.1797V6.19727H22.7227V6.37253Z" fill="#2703A5"/>
<path d="M23.6944 6.84565H23.4872L23.4531 6.97844H23.2852L23.5203 6.19727H23.6656L23.9007 6.97844H23.7292L23.6942 6.84565H23.6944ZM23.6567 6.69813L23.5901 6.44586L23.5256 6.69813H23.6567Z" fill="#2703A5"/>
<path d="M24.9981 6.80318V6.97844H24.5742V6.19727H24.7333V6.80318H24.9981Z" fill="#2703A5"/>
<path d="M7.67137 0H0.585584C0.262182 0 0 0.334102 0 0.746916V6.25308C0 6.66533 0.262182 7 0.585584 7H7.67137C7.99477 7 8.25696 6.66533 8.25696 6.25308V0.746916C8.25696 0.334102 7.99477 0 7.67137 0ZM4.18848 3.61991L3.2491 5.74995C3.08718 6.12058 2.65531 6.05914 2.5606 5.65255L1.87609 2.70311H1.18936C0.984402 2.69547 0.819596 2.47972 0.819596 2.21498C0.819596 1.95025 0.98418 1.73563 1.18936 1.72799H2.14736C2.32703 1.72799 2.48518 1.87975 2.53709 2.09918L3.03372 4.24083L3.5155 3.13858C3.62264 2.8931 3.88149 2.81778 4.05561 2.95963C4.23018 3.10205 4.28962 3.38972 4.18848 3.61963V3.61991ZM7.39034 1.74271L5.93658 5.03022C5.77421 5.40084 5.34234 5.3394 5.24807 4.9331L4.56356 1.98366H3.87639C3.67188 1.97601 3.50707 1.76026 3.50707 1.49553C3.50707 1.2308 3.67166 1.01618 3.87639 1.00853H4.83484C5.01451 1.00853 5.17266 1.1603 5.22456 1.37973L5.7212 3.52138L6.70871 1.26109C6.7768 1.1048 6.97089 0.902641 7.23396 1.06318C7.39899 1.16398 7.50302 1.48817 7.39034 1.74299V1.74271Z" fill="#2703A5"/>
</g>
<defs>
<clipPath id="clip0_2429_58">
<rect width="25" height="7" fill="white"/>
</clipPath>
</defs>
</svg>
