<svg width="48" height="48" viewBox="0 0 48 48" fill="none" xmlns="http://www.w3.org/2000/svg">
<path d="M38.7809 0.934579L33.626 30.7888L28.1337 0.919626C28.0335 0.37757 27.6909 0 27.2956 0H21.184C20.794 0 20.4514 0.370094 20.3486 0.908411L14.6719 30.5832L9.46951 0.934579C9.37463 0.385047 9.02675 0.00373769 8.6288 0.00373769H0.867436C0.282369 0.00373769 -0.134034 0.811215 0.0399046 1.6L10.1336 47.1402C10.247 47.6523 10.5817 48 10.9612 48H17.3574C17.7448 48 18.0848 47.6374 18.1902 47.1065L24.0013 18.1682L29.8151 47.1065C29.9205 47.6336 30.2605 48 30.6479 48H37.0889C37.4684 48 37.8031 47.6523 37.9164 47.1365L47.9601 1.59626C48.134 0.803737 47.7176 0 47.1326 0H39.6189C39.221 0 38.8731 0.385046 38.7782 0.938317L38.7809 0.934579Z" fill="#2703A5"/>
</svg>
